PathFileType	4	(X/Y/Z)	/Users/itak/Documents/Research/Walk-IL/dataset/trc/00211_00009.trc
DataRate	CameraRate	NumFrames	NumMarkers	Units	OrigDataRate	OrigDataStartFrame	OrigNumFrames
100.000000	100.000000	4	53	mm	100.000000	548	627
Frame#	Time	RPSI			LPSI			L3			STRN			T10			C7			CLAV			RBAK			LBAK			LSHO			LUPA			LAEL			LAOL			LWTS			LWPS			LFRA			LIFD			LHPS			RSHO			RUPA			RAEL			RAOL			RWTS			RWPS			RFRA			RIFD			RHTS			RHPS			RBHD			LFHD			RFHD			LBHD			LHIP			RHIP			RASI			LASI			LKNE			LTHI			LANK			LTIP			LTOE			LMT1			LMT5			LHEE			RKNE			RTHI			RANK			RTIP			RTOE			RMT1			RMT5			RHEE			LHTS			
		X1	Y1	Z1	X2	Y2	Z2	X3	Y3	Z3	X4	Y4	Z4	X5	Y5	Z5	X6	Y6	Z6	X7	Y7	Z7	X8	Y8	Z8	X9	Y9	Z9	X10	Y10	Z10	X11	Y11	Z11	X12	Y12	Z12	X13	Y13	Z13	X14	Y14	Z14	X15	Y15	Z15	X16	Y16	Z16	X17	Y17	Z17	X18	Y18	Z18	X19	Y19	Z19	X20	Y20	Z20	X21	Y21	Z21	X22	Y22	Z22	X23	Y23	Z23	X24	Y24	Z24	X25	Y25	Z25	X26	Y26	Z26	X27	Y27	Z27	X28	Y28	Z28	X29	Y29	Z29	X30	Y30	Z30	X31	Y31	Z31	X32	Y32	Z32	X33	Y33	Z33	X34	Y34	Z34	X35	Y35	Z35	X36	Y36	Z36	X37	Y37	Z37	X38	Y38	Z38	X39	Y39	Z39	X40	Y40	Z40	X41	Y41	Z41	X42	Y42	Z42	X43	Y43	Z43	X44	Y44	Z44	X45	Y45	Z45	X46	Y46	Z46	X47	Y47	Z47	X48	Y48	Z48	X49	Y49	Z49	X50	Y50	Z50	X51	Y51	Z51	X52	Y52	Z52	X53	Y53	Z53	

549	5.48	503.5583801269531	1039.564086914062	-213.7883453369141	509.6990966796875	1043.940185546875	-333.7181396484375	503.1167907714844	1116.060302734375	-291.0541687011719	739.0518188476562	1314.18310546875	-282.8746032714844	486.4472045898438	1244.617797851562	-285.7031555175781	539.5053100585938	1508.580688476562	-289.6885375976562	708.3047485351562	1430.160766601562	-283.3331909179688	467.1567993164062	1366.77783203125	-219.7216339111328	524.5330200195312	1469.130249023438	-400.4478454589844	615.5738525390625	1475.122192382812	-452.548828125	597.1493530273438	1358.97802734375	-534.8196411132812	636.9254150390625	1156.407348632812	-577.6512451171875	563.0614624023438	1126.598266601562	-538.8400268554688	773.1670532226562	952.3504638671875	-510.3720703125	763.916259765625	932.26171875	-591.11474609375	684.69482421875	1058.058837890625	-589.7722778320312	840.4996948242188	768.4089965820312	-519.783447265625	805.9927368164062	853.4085083007812	-585.5496215820312	594.30126953125	1469.59716796875	-118.7092819213867	574.9530029296875	1403.624877929688	-53.47663497924805	568.3388671875	1123.188598632812	-10.99124336242676	537.5357666015625	1114.966430664062	-100.0127639770508	712.89208984375	912.8648071289062	-52.82986450195312	663.41064453125	898.0987548828125	13.21335315704346	599.1340942382812	1056.069580078125	2.630522727966309	736.9437255859375	718.2318115234375	-52.2557487487793	757.1589965820312	793.3373413085938	-36.65256500244141	706.861083984375	792.5402221679688	15.7058801651001	576.9991455078125	1667.849975585938	-236.9263153076172	780.8806762695312	1718.403442382812	-323.292236328125	776.5315551757812	1716.44921875	-223.2450256347656	626.9835815429688	1677.922119140625	-367.4067077636719	617.77783203125	982.5887451171875	-469.4753723144531	599.3734741210938	1001.052917480469	-103.7189483642578	694.5912475585938	1046.653198242188	-137.1536865234375	714.3286743164062	1026.927490234375	-417.4535827636719	649.3009033203125	498.3069152832031	-410.7292785644531	648.8133544921875	642.1713256835938	-445.4832763671875	541.2225341796875	32.04802322387695	-382.6270751953125	589.1754150390625	276.4640197753906	-407.6856994628906	759.4955444335938	34.95523071289062	-335.9002075195312	692.2005615234375	31.95077514648438	-290.1535949707031	667.6587524414062	29.93063926696777	-405.3113708496094	482.4964904785156	41.57101058959961	-328.4792785644531	629.2071533203125	509.7437438964844	-142.6087036132812	656.9545288085938	777.2112426757812	-94.93090057373047	511.0623474121094	34.36606597900391	-163.7293548583984	624.8944091796875	390.8129577636719	-163.8911590576172	719.6170043945312	37.62609481811523	-217.4622192382812	660.0928344726562	35.74769592285156	-256.521240234375	621.0532836914062	31.5142936706543	-142.4693145751953	444.7734069824219	36.43903350830078	-219.8471832275391	840.4218139648438	870.891845703125	-528.1653442382812	
550	5.49	503.8640441894531	1039.583374023438	-214.1813659667969	510.3572692871094	1043.97314453125	-334.1025390625	503.48095703125	1115.960815429688	-291.4734497070312	739.344970703125	1314.195068359375	-282.9644165039062	486.7970886230469	1244.51025390625	-286.1016845703125	539.7623291015625	1508.500122070312	-290.0004577636719	708.6010131835938	1430.130615234375	-283.5010070800781	467.40087890625	1366.732666015625	-220.0884704589844	524.8521728515625	1468.991577148438	-400.7095336914062	615.885498046875	1474.975830078125	-452.8897705078125	596.8117065429688	1358.620239257812	-534.9227905273438	634.9296875	1155.652709960938	-577.2770385742188	560.8916625976562	1126.667236328125	-538.1158447265625	768.8578491210938	949.9766235351562	-510.3350830078125	758.9385375976562	929.8222045898438	-590.9854736328125	681.3988037109375	1056.6552734375	-589.4524536132812	833.6730346679688	765.0537719726562	-519.7097778320312	799.969970703125	850.4566650390625	-585.5088500976562	594.3446655273438	1469.582763671875	-118.9413757324219	574.9796752929688	1403.584106445312	-53.73262405395508	568.4710693359375	1123.115234375	-11.34437084197998	537.7478637695312	1114.899536132812	-100.3772964477539	713.4675903320312	913.145263671875	-53.42965316772461	664.0202026367188	898.1473388671875	12.5851879119873	599.3422241210938	1055.993408203125	2.204371690750122	738.0706787109375	718.605712890625	-53.13708877563477	758.0097045898438	793.7172241210938	-37.42932891845703	707.7493286132812	792.7019653320312	14.9276065826416	577.2355346679688	1667.8681640625	-237.2987060546875	781.2466430664062	1718.321533203125	-323.3721923828125	776.7213134765625	1716.404663085938	-223.3066558837891	627.3307495117188	1677.872436523438	-367.6861877441406	618.3715209960938	982.5009765625	-469.7394409179688	599.452392578125	1001.072082519531	-103.9559936523438	694.6676635742188	1046.656616210938	-137.1396942138672	715.1710815429688	1026.895385742188	-417.4578552246094	649.1040649414062	498.2951354980469	-410.7484741210938	648.950927734375	642.1591186523438	-445.613037109375	541.2059936523438	32.04993057250977	-382.6058654785156	588.8895874023438	276.4809875488281	-407.7590942382812	759.4769287109375	34.96626663208008	-335.9122314453125	692.1932373046875	31.95501136779785	-290.1560363769531	667.6435546875	29.92740631103516	-405.3252563476562	482.4718017578125	41.54878616333008	-328.445556640625	629.2676391601562	509.7419738769531	-142.6422424316406	657.0802001953125	777.4503784179688	-95.01914978027344	511.0559692382812	34.37987899780273	-163.7480621337891	624.972900390625	390.7978515625	-163.9259338378906	719.6198120117188	37.62162017822266	-217.4605712890625	660.0931396484375	35.73663711547852	-256.5210571289062	621.0562744140625	31.51736640930176	-142.4747467041016	444.7997436523438	36.45061111450195	-219.8443145751953	834.10546875	866.56787109375	-527.91845703125	
551	5.5	504.1893615722656	1039.612915039062	-214.5733337402344	511.016357421875	1044.018432617188	-334.4945678710938	503.851806640625	1115.857543945312	-291.888671875	739.6411743164062	1314.216796875	-283.0517883300781	487.177978515625	1244.40966796875	-286.4873046875	540.0176391601562	1508.427612304688	-290.2960205078125	708.9013061523438	1430.109375	-283.6685485839844	467.63818359375	1366.678588867188	-220.4384155273438	525.1632080078125	1468.84912109375	-400.9463806152344	616.1768188476562	1474.832275390625	-453.2291564941406	596.4345092773438	1358.253295898438	-534.9928588867188	632.8603515625	1154.892822265625	-576.8291015625	558.6602783203125	1126.754516601562	-537.2946166992188	764.3456420898438	947.5388793945312	-510.2872314453125	753.7235717773438	927.3468017578125	-590.8427734375	677.9441528320312	1055.230712890625	-589.0771484375	826.4944458007812	761.61767578125	-519.6587524414062	793.6242065429688	847.421875	-585.457763671875	594.377685546875	1469.566528320312	-119.1717758178711	575.018310546875	1403.54150390625	-53.98326110839844	568.622314453125	1123.040893554688	-11.688645362854	537.95166015625	1114.839599609375	-100.7467269897461	714.0189208984375	913.4088745117188	-54.02889251708984	664.6034545898438	898.1866455078125	11.95528030395508	599.530029296875	1055.916870117188	1.780467391014099	739.151611328125	718.964111328125	-54.01955795288086	758.8165283203125	794.0709838867188	-38.21865081787109	708.5880126953125	792.8452758789062	14.13676166534424	577.4461059570312	1667.892944335938	-237.6627502441406	781.5972290039062	1718.246826171875	-323.4410400390625	776.892578125	1716.380859375	-223.3676910400391	627.66162109375	1677.822998046875	-367.9601745605469	619.031494140625	982.4218139648438	-469.9847412109375	599.5205078125	1001.093444824219	-104.2187805175781	694.755615234375	1046.658813476562	-137.1196136474609	716.0254516601562	1026.864135742188	-417.4499206542969	648.8666381835938	498.2870178222656	-410.7825012207031	649.0051879882812	642.1497192382812	-445.7323913574219	541.1875610351562	32.04738616943359	-382.5879821777344	588.5812377929688	276.4985656738281	-407.841064453125	759.4569091796875	34.97593688964844	-335.9228210449219	692.1836547851562	31.96053886413574	-290.1585693359375	667.6287231445312	29.9211368560791	-405.3417663574219	482.447509765625	41.52555465698242	-328.4153747558594	629.2988891601562	509.7409973144531	-142.6714630126953	657.3507690429688	777.7398071289062	-95.23667907714844	511.0487670898438	34.38991546630859	-163.7654876708984	625.02197265625	390.7910461425781	-163.9553833007812	719.626708984375	37.62868499755859	-217.4632568359375	660.0925903320312	35.72904968261719	-256.5210266113281	621.056884765625	31.51957702636719	-142.4775085449219	444.8197631835938	36.45957946777344	-219.8415069580078	827.6266479492188	862.3087158203125	-527.7175903320312	
552	5.51	504.5285034179688	1039.651977539062	-214.9664764404297	511.6732482910156	1044.073364257812	-334.891357421875	504.2388000488281	1115.75146484375	-292.2983093261719	739.947509765625	1314.247680664062	-283.136474609375	487.5846557617188	1244.31591796875	-286.8533325195312	540.2747192382812	1508.367309570312	-290.5759582519531	709.2008666992188	1430.09716796875	-283.8348083496094	467.8744201660156	1366.615234375	-220.7732543945312	525.4675903320312	1468.70556640625	-401.1614074707031	616.4531860351562	1474.693115234375	-453.5673828125	596.0283203125	1357.879760742188	-535.0296630859375	630.7313232421875	1154.127807617188	-576.3075561523438	556.385009765625	1126.8583984375	-536.3763427734375	759.648681640625	945.0364379882812	-510.2245483398438	748.2886962890625	924.8448486328125	-590.684326171875	674.3505249023438	1053.790649414062	-588.6487426757812	818.9776000976562	758.1132202148438	-519.6345825195312	786.9811401367188	844.3261108398438	-585.4009399414062	594.4002685546875	1469.548828125	-119.404914855957	575.0646362304688	1403.496948242188	-54.23119354248047	568.7979736328125	1122.9658203125	-12.02118873596191	538.14990234375	1114.783935546875	-101.1208648681641	714.5440063476562	913.6513061523438	-54.62717437744141	665.1547241210938	898.2138671875	11.32325649261475	599.710693359375	1055.83984375	1.360851645469666	740.176025390625	719.2963256835938	-54.89781951904297	759.5794677734375	794.3919067382812	-39.01592636108398	709.3704223632812	792.9658813476562	13.33621978759766	577.6209716796875	1667.920654296875	-238.0194854736328	781.92529296875	1718.18115234375	-323.4984741210938	777.0469360351562	1716.380249023438	-223.4290313720703	627.9841918945312	1677.771728515625	-368.2330627441406	619.7640991210938	982.3534545898438	-470.2079772949219	599.5787353515625	1001.117797851562	-104.5047149658203	694.8577270507812	1046.657104492188	-137.0944213867188	716.8696899414062	1026.815063476562	-417.41162109375	648.607421875	498.2784423828125	-410.8283996582031	649.0286254882812	642.1409912109375	-445.8308715820312	541.1688842773438	32.0410041809082	-382.5726013183594	588.264892578125	276.5147705078125	-407.9259643554688	759.4382934570312	34.98329162597656	-335.932373046875	692.1723022460938	31.96676826477051	-290.1617126464844	667.6151123046875	29.91241836547852	-405.3598327636719	482.4248046875	41.50276947021484	-328.3885803222656	629.3023681640625	509.7408447265625	-142.6958770751953	657.7822265625	778.0604248046875	-95.60147857666016	511.0402221679688	34.39533615112305	-163.7803649902344	625.0445556640625	390.7903747558594	-163.9796600341797	719.6389770507812	37.6490592956543	-217.4717254638672	660.09130859375	35.7252311706543	-256.5203247070312	621.0548706054688	31.5203742980957	-142.4769134521484	444.8316345214844	36.46530914306641	-219.8393096923828	821.01708984375	858.13818359375	-527.580078125	
